<svg viewBox="0 0 270 200.78965869084126" height="200.78965869084126" width="270" style="width: 270px; height: 200.79px; position: absolute; top: 50%; left: 50%; z-index: 0; cursor: pointer; transform: translate(-50%, -50%) scale(0.621546);"><defs id="SvgjsDefs3613"></defs><g id="SvgjsG3614" featurekey="symbolContainer" transform="matrix(1,0,0,1,0,45)" fill="#111111"><rect xmlns="http://www.w3.org/2000/svg" width="100" height="111" rx="10" ry="10"></rect></g><g id="SvgjsG3615" featurekey="monogramFeature-0" transform="matrix(1.6489761205934563,0,0,1.6489761205934563,15.053929483977864,34.68301065961812)" fill="#0f95f5"><path d="M32.682 45.32 c1.3061 4.0524 2.9588 8.0838 4.9755 12.03 c0.31078 0.66228 -3.3781 4.205 -4.1744 3.8993 c-4.0302 -2.5099 -7.9302 -5.396 -11.644 -8.6328 c-0.15826 -0.0801 -0.31969 -0.15381 -0.47414 -0.24152 c-0.59555 -0.34066 -1.1618 -0.74808 -1.6907 -1.2158 c-0.44619 2.5563 -0.83262 5.1176 -1.1161 7.6824 c-0.13793 1.0322 -5.2238 1.5749 -5.691 0.49066 c-1.3468 -4.9498 -2.3326 -9.9558 -3.1944 -14.969 c-0.6813 -4.0117 -1.2648 -8.0322 -1.786 -12.062 c-2.8232 -3.8198 -5.6744 -8.475 -4.688 -8.9388 c3.1461 -1.7479 6.6354 -3.3546 10.63 -4.2692 c1.9881 -0.45252 4.0906 -0.73284 6.2448 -0.70614 c1.0417 0.015235 2.2366 0.076878 3.3336 0.26883 c1.1135 0.16588 2.1908 0.44426 3.244 0.77472 c2.1012 0.67626 4.0842 1.6887 5.8962 3.024 c0.4875 0.33879 1.0081 0.77988 1.493 1.2114 c0.49828 0.42263 0.93174 0.9108 1.3754 1.3773 c0.42457 0.48369 0.82056 0.99024 1.193 1.5032 c0.34383 0.53326 0.71178 1.0493 0.98886 1.6106 c1.1695 2.208 1.8235 4.6156 1.7866 6.9822 c-0.020332 2.3573 -0.71628 4.6867 -2.093 6.5418 c-1.1847 1.5997 -2.8137 2.7813 -4.6085 3.6393 z M26.218 32.973 l-0.36164 -0.11004 c-0.63306 -0.2536 -1.3354 -0.43916 -2.0516 -0.52371 c-0.69342 2.7221 -1.3576 5.4532 -1.9779 8.1924 c0.41566 -0.14871 0.83514 -0.28981 1.2451 -0.45059 c0.7296 -0.28729 1.451 -0.58981 2.1596 -0.91392 l0.53068 -0.2434 c0.15761 -0.07752 0.39979 -0.18686 0.44748 -0.22688 c0.17924 -0.10553 0.35977 -0.21867 0.52758 -0.33182 c0.67056 -0.45188 1.2387 -0.97176 1.5025 -1.6499 c0.23836 -0.60696 0.17098 -1.2928 -0.052735 -1.8539 c-0.22184 -0.56818 -0.60126 -1.0271 -1.0062 -1.3576 c-0.20338 -0.16652 -0.42199 -0.29684 -0.63744 -0.40043 c-0.1125 -0.046406 -0.21422 -0.098496 -0.32543 -0.13025 z"></path></g><g id="SvgjsG3616" featurekey="nameFeature-0" transform="matrix(7.170966427127472,0,0,7.170966427127472,108.52417794607223,-86.0521510656166)" fill="#111111"><path d="M22.518 21.279 c0 5.1164 -4.162 9.2784 -9.2776 9.2784 l-4.6035 0 l5.0756 5.8008 c0.79856 0.913 0.70604 2.3004 -0.20668 3.099 c-0.41644 0.36453 -0.93196 0.54324 -1.4453 0.54324 c-0.61104 0 -1.2191 -0.25363 -1.6534 -0.74996 l-8.2628 -9.4432 c-0.56768 -0.64868 -0.70332 -1.5691 -0.34726 -2.3536 s1.1381 -1.2885 1.9998 -1.2885 l9.4428 0 c2.6943 0 4.8864 -2.192 4.8864 -4.8864 s-2.1922 -4.8864 -4.8864 -4.8864 l-4.1412 0 l4.5136 4.5136 c0.85756 0.85756 0.85756 2.248 0 3.1056 c-0.85784 0.85784 -2.248 0.85784 -3.1058 0 l-8.2628 -8.2628 c-0.62808 -0.62808 -0.81584 -1.5726 -0.47576 -2.3932 s1.1408 -1.3555 2.0289 -1.3555 l9.4428 0 c5.1164 0 9.2784 4.1624 9.2784 9.2784 z"></path></g></svg>