<svg xmlns="http://www.w3.org/2000/svg" data-name="Layer 1" viewBox="0 0 32 32"><path fill="none" stroke="#29abe2" stroke-linecap="round" stroke-linejoin="round" d="M23.5 27.5h-17l-1-15.19a.76.76 0 01.77-.81H10a1.11 1.11 0 01.89.44l1.22 1.56H23.5v2"/><path fill="none" stroke="#29abe2" stroke-linecap="round" stroke-linejoin="round" d="M26.3 20.7l.84-3.2H9.25l-2.75 10h16.91a1.42 1.42 0 001.37-1.06l.76-2.88"/><path fill="none" stroke="#29abe2" stroke-linecap="round" stroke-linejoin="round" d="M16.5 24.5h0a1.42 1.42 0 012 0h0M13.5 21.5h1M20.5 21.5h1M20.62 3.61C18.25 4 16.5 5.37 16.5 7a2.57 2.57 0 00.7 1.7l-.7 2.8 2.86-1.43a8.12 8.12 0 002.64.43c3 0 5.5-1.57 5.5-3.5 0-1.6-1.69-2.95-4-3.37M21.25 6.25l1.5 1.5M22.75 6.25l-1.5 1.5"/></svg>