<svg xmlns="http://www.w3.org/2000/svg" width="143.499" height="51.521" viewBox="0 0 143.499 51.521"><defs><style>.a{fill:#fff;}</style></defs><g transform="translate(-0.011 -0.004)"><path class="a" d="M554.148,53.5a13.979,13.979,0,0,0,6.107,1.872,14.956,14.956,0,0,0,12.2-5.133,13.275,13.275,0,0,0-1.6-18.866,14.9,14.9,0,0,0-10.17-3.4,13.865,13.865,0,0,0-11.665,6.313c-3.016,4.49-2.961,9.2-.444,14.169l9.157-8.641c-2.364,0-4.4-.017-6.435,0-.634,0-.911-.19-.846-.846.144-1.692.26-3.367.391-5.05.042-.535.281-.8.878-.793q8.717.025,17.436,0c.791,0,.9.336.9,1.021-.032,5.355-.027,10.709-.034,16.072v1.136h-7.465c.211-2.115.4-4.134.634-6.475Z" transform="translate(-432.148 -23.466)"/><path class="a" d="M358.017,65.255c.085.129.142.18.156.241.317,1.351,1.093,2.024,2.218,1.9,1.239-.125,1.891-.926,1.9-2.341V48.669c0-.981-.184-1.834-1.256-2.187a1.974,1.974,0,0,0-2.819,1.956c-.038,3.557-.027,7.116-.038,10.675a4.172,4.172,0,0,1-1.635,3.4,6.9,6.9,0,0,1-7.364.878c-2.47-1.026-3.274-3.132-3.274-5.644,0-3.066.025-6.133,0-9.2a2.066,2.066,0,1,0-4.126-.085c0,3.733-.106,7.482.2,11.2a7.944,7.944,0,0,0,5.437,7.163A10.458,10.458,0,0,0,358.017,65.255Z" transform="translate(-270.54 -37.95)"/><path class="a" d="M436.854,58.751h.085c0-3.028.017-6.057-.013-9.083a5.525,5.525,0,0,0-.311-2.056,2,2,0,0,0-2.468-.869,1.892,1.892,0,0,0-1.356,2.115v18.7a4.509,4.509,0,0,1-2.684,4.422,13.781,13.781,0,0,1-3.039.736,1.943,1.943,0,0,0-1.677,1.982,1.9,1.9,0,0,0,1.783,1.874,8.813,8.813,0,0,0,9.662-8.317C436.987,65.093,436.854,61.919,436.854,58.751Z" transform="translate(-336.478 -38.192)"/><path class="a" d="M99.224,58.527h0V53.564c0-1.658.021-3.314-.017-4.97a1.521,1.521,0,0,0-1.5-1.584,1.547,1.547,0,0,0-1.5,1.582c-.023.315-.013.634-.013.952V67.407c0,4.09-2.115,6.344-6.188,6.615-.983.066-1.6.634-1.59,1.451a1.7,1.7,0,0,0,1.831,1.385c5.437-.269,8.954-3.972,8.969-9.449C99.23,64.446,99.224,61.486,99.224,58.527Z" transform="translate(-70.769 -38.486)"/><path class="a" d="M271.95,49.2c.059-.569.087-.823.11-1.079a1.525,1.525,0,0,0-1.449-1.9c-.886-.074-1.438.51-1.516,1.614-.015.211,0,.423,0,.634V64.722a8.172,8.172,0,0,0,.04,1.161,1.294,1.294,0,0,0,1.491,1.169,2.287,2.287,0,0,0,1.3-1.121,2.93,2.93,0,0,0,.178-1.438c.015-3.483-.015-6.968.03-10.451a5.209,5.209,0,0,1,.423-2.132c1.2-2.474,4.371-3.792,7.512-3.227a2.594,2.594,0,0,0,1.334,0c.389-.154.962-.6.947-.89a2.392,2.392,0,0,0-.761-1.324,1.908,1.908,0,0,0-.981-.313,8.527,8.527,0,0,0-7.825,2.417A8.952,8.952,0,0,1,271.95,49.2Z" transform="translate(-213.231 -37.694)"/><path class="a" d="M506.235,57.131c0-2.749.015-5.5,0-8.235,0-1.54-.649-2.267-1.9-2.256a1.988,1.988,0,0,0-2.187,2.252q-.019,8.235,0,16.472a2.039,2.039,0,0,0,2.068,2.292c1.271.025,2.013-.793,2.022-2.288C506.245,62.623,506.235,59.878,506.235,57.131Z" transform="translate(-396.993 -38.194)"/><path class="a" d="M502.049,6.807a2.542,2.542,0,0,0-2.669,2.4,2.645,2.645,0,0,0,2.58,2.658,2.605,2.605,0,0,0,2.7-2.4A2.485,2.485,0,0,0,502.049,6.807Z" transform="translate(-394.821 -6.785)"/><path class="a" d="M460.107,6.726a2.611,2.611,0,0,0-2.779,2.449,2.688,2.688,0,0,0,2.648,2.629,2.624,2.624,0,0,0,2.682-2.44A2.52,2.52,0,0,0,460.107,6.726Z" transform="translate(-361.662 -6.72)"/><path class="a" d="M124.368,12.382a2.011,2.011,0,0,0,2.024-2.068c.1-1.024-1.036-1.882-2.068-1.943a2.161,2.161,0,0,0-2.115,1.946A2.007,2.007,0,0,0,124.368,12.382Z" transform="translate(-97.413 -8.016)"/><path class="a" d="M554.1,53.507l9.036-8.611c-.228,2.341-.423,4.369-.634,6.475h7.457V50.236c0-5.355,0-10.709.034-16.072,0-.685-.106-1.026-.9-1.021q-8.717.038-17.436,0c-.6,0-.846.258-.878.793-.131,1.692-.247,3.367-.391,5.05-.057.658.226.846.846.846,2.034-.027,4.071,0,6.435,0l-9.157,8.633c-2.523-4.963-2.572-9.677.444-14.169a13.89,13.89,0,0,1,11.665-6.313,14.876,14.876,0,0,1,10.17,3.4,13.275,13.275,0,0,1,1.6,18.866,14.956,14.956,0,0,1-12.2,5.133A14.008,14.008,0,0,1,554.1,53.507Z" transform="translate(-432.1 -23.474)"/><path class="a" d="M357.906,65.295a10.516,10.516,0,0,1-10.62,1.582,7.938,7.938,0,0,1-5.437-7.163c-.307-3.714-.212-7.463-.2-11.2a2.066,2.066,0,1,1,4.126.085c.027,3.066,0,6.133,0,9.2,0,2.512.8,4.619,3.274,5.644a6.9,6.9,0,0,0,7.364-.878,4.172,4.172,0,0,0,1.635-3.4c.011-3.559,0-7.118.038-10.675a1.974,1.974,0,0,1,2.819-1.956c1.072.353,1.258,1.205,1.256,2.187V62.254c0,.952.011,1.9,0,2.855,0,1.415-.656,2.216-1.9,2.341-1.125.114-1.9-.558-2.218-1.9C358.047,65.474,357.988,65.424,357.906,65.295Z" transform="translate(-270.428 -37.989)"/><path class="a" d="M169.8,63.891c-.579.489-1.144,1-1.738,1.463a10.806,10.806,0,0,1-14.822-1.9,10.6,10.6,0,0,1,.81-13.979,11.51,11.51,0,0,1,17.068,1.33,9.851,9.851,0,0,1,1.965,5.8c.042,2.921.019,5.843.013,8.764,0,1.2-.554,1.872-1.508,1.886-1.079.017-1.516-.539-1.512-1.92V64Zm.288-6.936c.04-4.691-3.352-8.036-8.229-8.1a8.032,8.032,0,1,0,.283,16.062A7.8,7.8,0,0,0,170.092,56.954Z" transform="translate(-120.115 -37.924)"/><path class="a" d="M24.058,63.5c-.806.7-1.358,1.227-1.96,1.692A10.806,10.806,0,0,1,8.819,64.9,10.517,10.517,0,0,1,6.066,52.182a11.063,11.063,0,0,1,10.8-6.031,11.434,11.434,0,0,1,6.7,2.722,10.121,10.121,0,0,1,3.494,7.493c.129,2.988.038,5.985.034,8.977a1.59,1.59,0,0,1-1.387,1.779,1.635,1.635,0,0,1-1.652-1.764C24.041,64.843,24.058,64.327,24.058,63.5Zm.038-6.767A7.824,7.824,0,0,0,16.439,48.7c-4.982-.034-8.681,3.4-8.531,8.172s3.445,7.768,8.076,7.869A7.771,7.771,0,0,0,24.1,56.744Z" transform="translate(-5 -37.773)"/><path class="a" d="M436.8,58.758c0,3.172.133,6.344-.032,9.5a8.808,8.808,0,0,1-9.662,8.317,1.9,1.9,0,0,1-1.783-1.874A1.947,1.947,0,0,1,427,72.722a13.521,13.521,0,0,0,3.039-.736,4.526,4.526,0,0,0,2.684-4.422c.013-6.232,0-12.465,0-18.7a1.89,1.89,0,0,1,1.356-2.115,2,2,0,0,1,2.468.869,5.74,5.74,0,0,1,.311,2.056c.03,3.026.013,6.055.013,9.094Z" transform="translate(-336.423 -38.199)"/><path class="a" d="M99.239,58.527v8.882c-.015,5.477-3.532,9.18-8.969,9.449a1.7,1.7,0,0,1-1.831-1.385c-.013-.818.607-1.385,1.59-1.451,4.069-.277,6.181-2.525,6.188-6.615q.015-8.933,0-17.864c0-.317,0-.634.013-.952a1.531,1.531,0,0,1,1.5-1.582,1.5,1.5,0,0,1,1.5,1.584c.038,1.656.015,3.312.017,4.97v4.968Z" transform="translate(-70.785 -38.486)"/><path class="a" d="M271.986,49.213a8.968,8.968,0,0,0,.831-.62,8.523,8.523,0,0,1,7.825-2.417,1.857,1.857,0,0,1,.981.313,2.392,2.392,0,0,1,.761,1.324c.015.292-.554.738-.947.89a2.664,2.664,0,0,1-1.334,0c-3.14-.569-6.308.749-7.5,3.238a5.209,5.209,0,0,0-.423,2.132c-.044,3.483-.015,6.979-.03,10.451a2.937,2.937,0,0,1-.178,1.438c-.292.478-.81,1.057-1.3,1.121a1.294,1.294,0,0,1-1.491-1.169,8.168,8.168,0,0,1-.04-1.161V47.86c.078-1.1.634-1.692,1.516-1.614a1.522,1.522,0,0,1,1.449,1.9C272.067,48.39,272.045,48.644,271.986,49.213Z" transform="translate(-213.267 -37.709)"/><path class="a" d="M506.227,57.131c0,2.749.011,5.5,0,8.237,0,1.5-.753,2.314-2.022,2.288a2.043,2.043,0,0,1-2.068-2.292q-.023-8.235,0-16.472a1.986,1.986,0,0,1,2.187-2.252c1.256,0,1.9.717,1.9,2.256C506.241,51.641,506.227,54.386,506.227,57.131Z" transform="translate(-396.986 -38.194)"/><path class="a" d="M502.049,6.807a2.483,2.483,0,0,1,2.614,2.663,2.608,2.608,0,0,1-2.7,2.4,2.646,2.646,0,0,1-2.58-2.658A2.542,2.542,0,0,1,502.049,6.807Z" transform="translate(-394.821 -6.785)"/><path class="a" d="M460.108,6.726a2.52,2.52,0,0,1,2.55,2.637,2.624,2.624,0,0,1-2.682,2.44,2.7,2.7,0,0,1-2.648-2.629A2.61,2.61,0,0,1,460.108,6.726Z" transform="translate(-361.663 -6.72)"/><path class="a" d="M124.383,12.382a2,2,0,0,1-2.155-2.066,2.162,2.162,0,0,1,2.115-1.946c1.026.061,2.17.92,2.068,1.943A2.023,2.023,0,0,1,124.383,12.382Z" transform="translate(-97.428 -8.016)"/><path class="a" d="M106.755,220.314h-1.846v5.663h-.829v-5.663h-1.84v-.734h4.515Z" transform="translate(-81.667 -174.561)"/><path class="a" d="M143.681,225.977H140.24v-6.4h3.3v.734h-2.47v2.049h2.295v.732h-2.295v2.151h2.614Z" transform="translate(-111.631 -174.561)"/><path class="a" d="M178.909,225.963h-.975l-1.057-1.776a2.5,2.5,0,0,0-.582-.725,1.058,1.058,0,0,0-.634-.19h-.594v2.692h-.827v-6.4h1.95a2.191,2.191,0,0,1,1.463.45,1.565,1.565,0,0,1,.529,1.258A1.692,1.692,0,0,1,176.761,223v.019a1.359,1.359,0,0,1,.457.319,4.9,4.9,0,0,1,.5.706Zm-3.845-5.674v2.261h.975a1.29,1.29,0,0,0,.918-.33,1.131,1.131,0,0,0,.353-.869.979.979,0,0,0-.321-.78,1.389,1.389,0,0,0-.937-.281Z" transform="translate(-138.441 -174.547)"/><path class="a" d="M216.815,223.372q0,2.713-2.462,2.713-2.354,0-2.354-2.61v-3.9h.825v3.849q0,1.92,1.611,1.92,1.559,0,1.556-1.859v-3.91h.827Z" transform="translate(-168.216 -174.561)"/><path class="a" d="M253.248,223.655a2.879,2.879,0,0,1-.491,1.8,1.6,1.6,0,0,1-1.339.634,1.565,1.565,0,0,1-.649-.116v-.8a1.057,1.057,0,0,0,.634.186q1.009,0,1.007-1.692V219.58h.827Z" transform="translate(-198.787 -174.561)"/><path class="a" d="M282.917,219.58v6.4h-.827v-6.4Z" transform="translate(-223.483 -174.561)"/><path class="a" d="M335.371,225.977v-4.23c0-.349.019-.77.061-1.269h-.021a3.9,3.9,0,0,1-.19.634l-2.115,4.864h-.459l-2.115-4.815a4.391,4.391,0,0,1-.188-.683h-.025c.027.3.04.73.04,1.3v4.2h-.789v-6.4h1.121l1.886,4.386a5.571,5.571,0,0,1,.285.785h.03c.142-.393.243-.662.3-.8l1.92-4.369h1.057v6.4Z" transform="translate(-260.922 -174.561)"/><path class="a" d="M383.026,225.977h-.911l-.653-1.751H378.8l-.615,1.751h-.911l2.436-6.4h.89Zm-1.821-2.474-.966-2.66a3.056,3.056,0,0,1-.1-.446h-.021a2.453,2.453,0,0,1-.1.446l-.958,2.66Z" transform="translate(-298.535 -174.561)"/><path class="a" d="M426.609,225.977v-4.23q0-.522.063-1.269h-.021a3.9,3.9,0,0,1-.19.634l-2.115,4.864h-.459l-2.115-4.815a4.571,4.571,0,0,1-.19-.683h-.025c.028.3.042.73.042,1.3v4.2h-.789v-6.4h1.119l1.888,4.386a5.843,5.843,0,0,1,.285.785h.027c.144-.393.245-.662.3-.8l1.92-4.369h1.057v6.4Z" transform="translate(-332.867 -174.561)"/><path class="a" d="M472.816,223.585v2.392H472v-6.4h1.819a2.359,2.359,0,0,1,1.607.5,1.791,1.791,0,0,1,.573,1.43,1.927,1.927,0,0,1-.67,1.525,2.314,2.314,0,0,1-1.673.552Zm0-3.28v2.553h.763a1.692,1.692,0,0,0,1.148-.34,1.22,1.22,0,0,0,.393-.977q0-1.233-1.463-1.235Z" transform="translate(-373.231 -174.561)"/><path class="a" d="M512.872,223.372q0,2.713-2.462,2.713-2.36,0-2.36-2.618V219.58h.835v3.849q0,1.92,1.611,1.92,1.557,0,1.557-1.859v-3.91h.827Z" transform="translate(-401.658 -174.561)"/></g></svg>